<?xml version="1.0" encoding="utf-8"?>
<!-- Generator: Adobe Adobe Illustrator 24.2.0, SVG Export Plug-In . SVG Version: 6.00 Build 0)  -->
<svg version="1.1" xmlns="http://www.w3.org/2000/svg" xmlns:xlink="http://www.w3.org/1999/xlink" x="0px" y="0px"
	 viewBox="0 0 500 500" style="enable-background:new 0 0 500 500;" xml:space="preserve">
<style type="text/css">
	.st0{fill:none;stroke:#FFFFFF;stroke-width:8;stroke-linecap:round;stroke-linejoin:round;stroke-miterlimit:10;}
	.st1{display:none;}
	.st2{display:inline;fill:none;stroke:#FFFFFF;stroke-width:8;stroke-miterlimit:10;}
	.st3{fill:none;stroke:#FFFFFF;stroke-width:4;stroke-linecap:round;stroke-linejoin:round;stroke-miterlimit:10;}
	.st4{fill:none;stroke:#FFFFFF;stroke-width:8;stroke-linecap:round;stroke-linejoin:round;stroke-miterlimit:10;}
</style>
<g id="Layer_1">
	<path class="st0" d="M189.89,11.47c0.04-0.14,190.13,3.51,255.56,107.84c65.29,104.1,38.1,282.47-83.97,343.76
		C244.46,521.82,82.6,461.91,28.96,319.28c-0.08-0.21-0.02-0.36-0.02-0.36c0.62-1.48,14.34,2.53,22.53,7.25
		c15.7,9.03,11.62,20.9,29.6,38.59c7.35,7.24,14.35,11.46,22.54,16.42c12.28,7.42,11.74,4.86,32.47,15.65
		c4.49,2.34,15.83,8.35,26.36,11.07c1.54,0.4,6.35,1.58,12.61,1.53c2.78-0.02,5.07-0.06,7.88-0.89c5.52-1.64,8.93-5.16,10.08-6.36
		c6.76-7.14,6.93-16.76,6.98-19.91c0.11-6.84-2.21-13.11-7.11-25.56c-2.12-5.4-3.65-8.28-5.68-14.91
		c-2.27-7.39-3.52-11.6-2.84-17.04c0.53-4.24,2.75-13.54,7.11-14.2c5.61-0.85,7.82,13.7,22.03,29.82
		c10.75,12.19,14.39,9.44,27,23.43c8.37,9.29,8.09,11.98,18.47,24.85c8.13,10.07,17.02,17.03,22.58,20.21
		c0,0,145.02-5.56,154.48-176.57C446.17,48.48,189.86,11.58,189.89,11.47z"/>
</g>
<g id="Layer_4">
	<path class="st0" d="M85.61,359.21c-0.88,0.05-2.27-0.29-9.75-11.26c-3.49-5.11-3.99-6.22-4.08-7.74
		c-0.25-4.43,3.29-7.63,5.54-10.23c10.88-12.52,6.28-27.64,11.46-28.5c4.3-0.72,10.63,9.19,12.19,18.27
		c0.57,3.3,0.39,5.84,0.24,7.79c-0.18,2.4-0.81,7.68-9.75,24.11C88.08,357.87,87.08,359.13,85.61,359.21z"/>
</g>
<g id="Layer_6">
	<path class="st0" d="M97.23,366.76c0.89,4.99,7.52,8.58,9.18,9.47c2.63,1.41,3.87,1.33,4.55,1.19c1.53-0.3,2.71-1.38,5.68-6
		c2.97-4.61,2.81-5.11,4.74-7.89c2.83-4.08,3.8-3.9,6-7.26c1.06-1.61,3.13-4.83,3.9-9.34c0.3-1.77,1.55-9.32-3.26-14.79
		c-1.39-1.58-2.51-2.86-4.14-2.96c-4.63-0.27-5.86,9.45-14.51,21.01C102.11,359.88,96.36,361.88,97.23,366.76z"/>
	<path class="st0" d="M121.55,382.58c-1.38-3.1,4.17-7.99,8.99-15.91c6.64-10.91,5.13-16.53,8.18-16.64
		c2.99-0.11,6.02,6.82,6.82,12.13c0.17,1.14,0.41,3.32-1.78,13.91c-2.49,12.05-3.67,13.44-5.03,13.91
		c-1.25,0.43-1.89-0.17-8.29-2.96C123.06,383.82,122.1,383.83,121.55,382.58z"/>
</g>
<g id="Layer_5" class="st1">
</g>
<g id="Layer_2" class="st1">
</g>
<g id="Layer_3" class="st1">
</g>
<g id="Ebene_7" class="st1">
</g>
<g id="Ebene_8">
	<path class="st0" d="M269.13,368.36c0,0-8.94-8.89-14.72-20.41c-4.37-8.71-1.12-20.2,0-23.24c1.07-2.91,6.41-10.87,18.1-14.4
		c12.29-3.71,25.85-2.91,25.85-2.91"/>
</g>
<g id="Ebene_9" class="st1">
	<path class="st2" d="M285.99,330.64c0,0,25.48,14.35,43.22,10.69c19.12-3.94,31.9-16.28,38.13-27.24
		c5.56-9.79,7.42-28.37-4.41-47.57c-9.61-15.61-40.51-25.54-40.51-25.54"/>
</g>
<g id="Ebene_11">
	<path class="st0" d="M286.16,351.43c0,0,71.36,14.15,86.42-26.72c22.43-60.84-45.79-83.23-45.79-83.23"/>
</g>
<g id="Ebene_12">
	<path class="st0" d="M254.17,217.6c0,0,6.34,52.55-35.4,60.31c-54.01,10.04-58.83-52.96-58.83-52.96"/>
</g>
<g id="Ebene_13">
	<path class="st0" d="M254.65,230.72c0,0,8.38-3.21,10.33-4.7c1.57-1.19,3.75-6.04,3.75-6.04"/>
</g>
<g id="Ebene_14">
	<path class="st0" d="M188.66,217.6c0,0-36.42,1.53-59.87-31.5c-14.07-19.82-28.57-53.73,0-87.39
		c30.44-35.87,74.95-28.97,98.31-12.69c30.03,20.93,27.54,50.21,27.54,50.21"/>
</g>
<g id="Ebene_15">
	<path class="st3" d="M158.35,183.38c0,0,5.43-4.62,6.82-6.68c1.27-1.88,3.49-8.15,3.49-8.15"/>
</g>
<g id="Ebene_16">
	<path class="st4" d="M150.78,174.78c0,0,1.04-4.12,1.39-5.5c0.39-1.53,1.55-6.14,1.55-6.14"/>
</g>
<g id="Ebene_17">
	<path class="st3" d="M183.24,156.56c0,0,5.14-3.28,6.54-4.79c1.24-1.34,4-6.6,4-6.6"/>
</g>
<g id="Ebene_18">
	<path class="st4" d="M178.69,144.22l8.66-4.82L178.69,144.22z"/>
</g>
<g id="Ebene_10">
	<path class="st0" d="M300.53,229c0,0,14.25-62.18-46.11-66.73c-46.46-3.5-57.48,70.03-57.48,70.03"/>
</g>
</svg>
